<svg xmlns="http://www.w3.org/2000/svg" id="credit-card_3_" width="32.808" height="24.059" data-name="credit-card (3)" viewBox="0 0 32.808 24.059">
    <defs>
        <style>
            .cls-1{fill:#707070}
        </style>
    </defs>
    <g id="Group_1083" data-name="Group 1083">
        <g id="Group_1082" data-name="Group 1082">
            <path id="Path_1087" d="M29.074 67.267H1.734A2.707 2.707 0 0 0-1 70v18.592a2.707 2.707 0 0 0 2.734 2.734h27.34a2.707 2.707 0 0 0 2.734-2.734V70a2.707 2.707 0 0 0-2.734-2.733zm-27.34 1.094h27.34A1.611 1.611 0 0 1 30.714 70v.547H.094V70a1.611 1.611 0 0 1 1.64-1.639zm28.98 6.562H.094v-3.282h30.62v3.281zm-1.64 15.31H1.734a1.611 1.611 0 0 1-1.64-1.64V76.016h30.62v12.576a1.611 1.611 0 0 1-1.64 1.64z" class="cls-1" data-name="Path 1087" transform="translate(1 -67.267)"/>
            <path id="Path_1088" d="M299.523 289.133h-9.842a.517.517 0 0 0-.547.547v5.468a.517.517 0 0 0 .547.547h9.842a.517.517 0 0 0 .547-.547v-5.468a.517.517 0 0 0-.547-.547zm-.547 5.468h-8.749v-4.374h8.749z" class="cls-1" data-name="Path 1088" transform="translate(-270.543 -274.916)"/>
        </g>
    </g>
</svg>
