<svg xmlns="http://www.w3.org/2000/svg" id="shopping-cart_3_" data-name="shopping-cart (3)" viewBox="0 0 27.607 29.721">
    <defs>
        <style>
            .cls-1{fill:#707070}
        </style>
    </defs>
    <g id="Group_1086" data-name="Group 1086">
        <path id="Path_1089" d="M221.935 129.717a.738.738 0 0 0 .521.214.749.749 0 0 0 .521-.214l4.529-4.529a.737.737 0 0 0-1.042-1.042l-4.008 4.014-1.618-1.618a.737.737 0 0 0-1.042 1.042z" class="cls-1" data-name="Path 1089" transform="translate(-207.18 -116.335)"/>
        <path id="Path_1090" d="M25.08 19.511h16.48a3.3 3.3 0 0 0 3.3-3.3V9.27a.735.735 0 1 0-1.471 0v6.938a1.827 1.827 0 0 1-1.826 1.826H25.08a1.827 1.827 0 0 1-1.826-1.826V2.651a.349.349 0 0 0-.006-.08v-.018c0-.018-.006-.037-.006-.049a.114.114 0 0 0-.012-.043c0-.006-.006-.018-.006-.025s-.012-.031-.018-.049-.006-.012-.006-.018-.012-.031-.018-.043-.006-.018-.012-.025l-.018-.037c-.006-.012-.012-.018-.018-.031s-.012-.018-.018-.025a.134.134 0 0 0-.025-.031l-.018-.018c-.012-.012-.018-.025-.031-.037s-.012-.012-.018-.012a.163.163 0 0 0-.037-.031l-.018-.018c-.012-.006-.025-.018-.037-.025s-.031-.018-.043-.031A.013.013 0 0 1 22.874 2l-.074-.041-4.529-1.9a.735.735 0 1 0-.57 1.354l4.076 1.722v18.239a3.3 3.3 0 0 0 3.023 3.285 3.258 3.258 0 1 0 5.442.012h7.8a3.262 3.262 0 1 0 2.727-1.471H25.08a1.827 1.827 0 0 1-1.826-1.826v-2.42a3.279 3.279 0 0 0 1.826.557zm4.223 6.95a1.79 1.79 0 1 1-1.79-1.79 1.792 1.792 0 0 1 1.787 1.79zm13.25 0a1.79 1.79 0 1 1-1.79-1.79 1.792 1.792 0 0 1 1.79 1.79z" class="cls-1" data-name="Path 1090" transform="translate(-17.25)"/>
    </g>
</svg>
