<svg
  xmlns="http://www.w3.org/2000/svg"
  xmlns:xlink="http://www.w3.org/1999/xlink"
  width="18px" height="21px">
  <path fill-rule="evenodd" fill="rgb(255, 255, 255)"
        d="M11.579,18.846 L11.579,18.846 M11.579,18.846 L7.323,18.846 C7.323,20.031 8.270,21.000 9.451,21.000 C10.621,21.000 11.579,20.031 11.579,18.846 M9.451,-0.000 C8.568,-0.000 7.855,0.721 7.855,1.615 L7.855,2.347 C4.801,3.080 3.067,5.837 3.067,9.154 L3.067,14.538 L0.939,16.692 L0.939,17.770 L17.963,17.770 L17.963,16.692 L15.835,14.538 L15.835,9.154 C15.835,5.848 14.090,3.080 11.047,2.347 L11.047,1.615 C11.047,0.721 10.334,-0.000 9.451,-0.000 "/>
</svg>
