<svg xmlns="http://www.w3.org/2000/svg" viewBox="0 0 28.398 24.802">
    <defs>
        <style>
            .cls-1{fill:#707070}
        </style>
    </defs>
    <g id="chat_1_" data-name="chat (1)" transform="translate(0 -27.032)">
        <g id="Group_560" data-name="Group 560" transform="translate(0 27.032)">
            <g id="Group_559" data-name="Group 559">
                <path id="Path_696" d="M25.445 37.3h-6.988a4.039 4.039 0 0 0 .08-.793v-6.213a3.032 3.032 0 0 0-3.273-3.262H3.257A3.018 3.018 0 0 0 0 30.289v6.216a2.971 2.971 0 0 0 2.826 3.236v2.831a.532.532 0 0 0 .942.341l2.661-3.151h5.418a4.107 4.107 0 0 0-.032.484v5.519a2.747 2.747 0 0 0 2.954 2.954H15.8l2.448 2.922a.532.532 0 0 0 .942-.341v-2.581h6.259a2.747 2.747 0 0 0 2.951-2.953v-5.519a2.734 2.734 0 0 0-2.955-2.947zm-13.284 1.4l-.021.011H6.158a.532.532 0 0 0-.41.192L3.89 41.119V39.23a.532.532 0 0 0-.532-.532h-.1a1.988 1.988 0 0 1-2.193-2.193v-6.211A1.986 1.986 0 0 1 3.257 28.1h12.007a1.99 1.99 0 0 1 2.193 2.2v6.206a2.809 2.809 0 0 1-.1.8h-2.583a2.826 2.826 0 0 0-2.613 1.394zm13.661 8.957a1.715 1.715 0 0 1-.371 0h-6.808a.532.532 0 0 0-.532.532v1.65l-1.666-1.99a.532.532 0 0 0-.41-.192h-1.261a1.714 1.714 0 0 1-1.889-1.889v-5.521a1.714 1.714 0 0 1 1.889-1.879h10.671a1.714 1.714 0 0 1 1.889 1.889l.005 5.508a1.714 1.714 0 0 1-1.518 1.89z" class="cls-1" data-name="Path 696" transform="translate(0 -27.032)"/>
            </g>
        </g>
        <g id="Group_562" data-name="Group 562" transform="translate(7.281 30.172)">
            <g id="Group_561" data-name="Group 561">
                <path id="Path_697" d="M113.208 75.046a1.65 1.65 0 0 0-.7-.607 2.32 2.32 0 0 0-1.017-.213 2.23 2.23 0 0 0-1.064.255 1.863 1.863 0 0 0-.708.644 1.437 1.437 0 0 0-.277.793.479.479 0 0 0 .154.341.532.532 0 0 0 .378.16q.378 0 .532-.452a1.766 1.766 0 0 1 .351-.649.846.846 0 0 1 .644-.224.867.867 0 0 1 .612.218.7.7 0 0 1 .239.532.607.607 0 0 1-.08.3 1.121 1.121 0 0 1-.192.255q-.112.112-.367.335a6.236 6.236 0 0 0-.463.442 1.41 1.41 0 0 0-.378 1.011.532.532 0 0 0 .144.4.484.484 0 0 0 .346.133.442.442 0 0 0 .473-.408v-.007c.027-.128.053-.224.064-.271a.829.829 0 0 1 .064-.154.879.879 0 0 1 .122-.17 2.79 2.79 0 0 1 .218-.218q.49-.436.681-.623a1.811 1.811 0 0 0 .325-.442 1.224 1.224 0 0 0 .138-.591 1.421 1.421 0 0 0-.239-.79z" class="cls-1" data-name="Path 697" transform="translate(-109.44 -74.225)"/>
            </g>
        </g>
        <g id="Group_564" data-name="Group 564" transform="translate(8.62 35.036)">
            <g id="Group_563" data-name="Group 563">
                <path id="Path_698" d="M130.781 147.945a.585.585 0 0 0-.58-.591h-.011l-.005-.005a.591.591 0 0 0-.431.17.57.57 0 0 0-.176.42.532.532 0 0 0 .181.442.628.628 0 0 0 .426.16.607.607 0 0 0 .415-.16.532.532 0 0 0 .181-.436z" class="cls-1" data-name="Path 698" transform="translate(-129.577 -147.349)"/>
            </g>
        </g>
        <g id="Group_566" data-name="Group 566" transform="translate(19.759 39.622)">
            <g id="Group_565" data-name="Group 565">
                <path id="Path_699" d="M298.379 217.328a1.8 1.8 0 0 0-.133-.772.532.532 0 0 0-.495-.266.67.67 0 0 0-.532.208.819.819 0 0 0-.2.58q0 .271.043.9l.144 2.129a2.033 2.033 0 0 0 .133.623.341.341 0 0 0 .335.2.351.351 0 0 0 .341-.213 1.736 1.736 0 0 0 .133-.607l.229-2.182a5.883 5.883 0 0 0 .002-.6z" class="cls-1" data-name="Path 699" transform="translate(-297.021 -216.288)"/>
            </g>
        </g>
        <g id="Group_568" data-name="Group 568" transform="translate(19.781 45.074)">
            <g id="Group_567" data-name="Group 567">
                <path id="Path_700" d="M298.5 298.421a.681.681 0 0 0-1.155.468v.011a.623.623 0 0 0 .2.495.7.7 0 0 0 .479.176.686.686 0 0 0 .468-.181.628.628 0 0 0 .2-.495.639.639 0 0 0-.192-.474z" class="cls-1" data-name="Path 700" transform="translate(-297.345 -298.229)"/>
            </g>
        </g>
    </g>
</svg>
