<svg xmlns="http://www.w3.org/2000/svg" viewBox="0 0 26.399 21.552">
    <defs>
        <style>
            .cls-1{fill:#707070}
        </style>
    </defs>
    <g id="credit-card_2_" data-name="credit-card (2)" transform="translate(1 -46.014)">
        <g id="Group_546" data-name="Group 546" transform="translate(-1 46.014)">
            <g id="Group_545" data-name="Group 545">
                <path id="Path_683" d="M263.974 247.119h7.037a.416.416 0 0 0 .44-.44v-3.959a.416.416 0 0 0-.44-.44h-7.037a.416.416 0 0 0-.44.44v3.959a.416.416 0 0 0 .44.44zm.44-3.959h6.158v3.079h-6.158z" class="cls-1" data-name="Path 683" transform="translate(-249.899 -232.165)"/>
                <path id="Path_684" d="M33.574 209.027h3.519a.44.44 0 0 0 0-.88h-3.519a.44.44 0 0 0 0 .88z" class="cls-1" data-name="Path 684" transform="translate(-31.375 -199.79)"/>
                <path id="Path_685" d="M135.974 209.027h3.519a.44.44 0 0 0 0-.88h-3.519a.44.44 0 1 0 0 .88z" class="cls-1" data-name="Path 685" transform="translate(-128.497 -199.79)"/>
                <path id="Path_686" d="M33.574 243.161h5.718a.44.44 0 1 0 0-.88h-5.718a.44.44 0 1 0 0 .88z" class="cls-1" data-name="Path 686" transform="translate(-31.375 -232.165)"/>
                <path id="Path_687" d="M179.959 242.28h-1.32a.44.44 0 0 0 0 .88h1.32a.44.44 0 1 0 0-.88z" class="cls-1" data-name="Path 687" transform="translate(-168.963 -232.164)"/>
                <path id="Path_688" d="M24.995 50.676a1.639 1.639 0 0 0-1.188-.66l-1.056-.128v-2.115a1.765 1.765 0 0 0-1.759-1.759H.759A1.764 1.764 0 0 0-1 47.773v14.075a1.766 1.766 0 0 0 1.26 1.687 1.712 1.712 0 0 0 1.555 1.744l20.321 2.287h.176a1.761 1.761 0 0 0 1.759-1.5l1.32-14.119a1.71 1.71 0 0 0-.396-1.271zM-.12 49.093h21.992v2.639H-.12zm.88-2.2h20.232a.882.882 0 0 1 .88.88v.44H-.12v-.44a.882.882 0 0 1 .879-.879zm-.88 14.955v-9.236h21.992v9.237a.882.882 0 0 1-.88.88H.759a.882.882 0 0 1-.879-.881zm24.631-10.072l-1.32 14.119a.887.887 0 0 1-.968.792L1.947 64.4a.889.889 0 0 1-.792-.792h19.837a1.765 1.765 0 0 0 1.759-1.759V50.72l1.012.088a.752.752 0 0 1 .572.308.891.891 0 0 1 .176.66z" class="cls-1" data-name="Path 688" transform="translate(1 -46.014)"/>
            </g>
        </g>
    </g>
</svg>
