<svg xmlns="http://www.w3.org/2000/svg" id="facebook-logo" viewBox="0 0 32 32">
    <defs>
        <style>
            .cls-1{fill:#c2c2c2}
        </style>
    </defs>
    <g id="post-facebook">
        <path id="Path_420" d="M28.8 0H3.2A3.209 3.209 0 0 0 0 3.2v25.6A3.209 3.209 0 0 0 3.2 32h25.6a3.209 3.209 0 0 0 3.2-3.2V3.2A3.209 3.209 0 0 0 28.8 0zm-5.526 3.2V8h-3.2a1.512 1.512 0 0 0-1.6 1.6v3.2h4.8v4.8h-4.8v11.2h-4.8V17.6h-3.2v-4.8h3.2v-4a5.669 5.669 0 0 1 5.6-5.6z" class="cls-1" data-name="Path 420"/>
    </g>
</svg>
