<svg
  xmlns="http://www.w3.org/2000/svg"
  xmlns:xlink="http://www.w3.org/1999/xlink"
  width="19px" height="19px">
  <path fill-rule="evenodd"  fill="rgb(255, 255, 255)"
        d="M10.477,17.046 L10.477,10.661 L17.045,10.661 L17.045,15.960 C17.045,16.559 16.559,17.046 15.960,17.046 L10.477,17.046 ZM8.523,1.954 L8.523,8.706 L1.954,8.706 L1.954,3.040 C1.954,2.441 2.441,1.954 3.040,1.954 L8.523,1.954 ZM0.000,2.171 L0.000,16.829 C0.000,18.028 0.972,19.000 2.171,19.000 L16.829,19.000 C18.028,19.000 19.000,18.028 19.000,16.829 L19.000,2.171 C19.000,0.972 18.028,-0.001 16.829,-0.001 L2.171,-0.001 C0.972,-0.001 0.000,0.972 0.000,2.171 L0.000,2.171 Z"/>
</svg>
