<svg xmlns="http://www.w3.org/2000/svg" id="instagram_07" data-name="instagram 07" viewBox="0 0 32 32">
    <defs>
        <style>
            .cls-1{fill:#c2c2c2}
        </style>
    </defs>
    <path id="Path_421" d="M120.85 105.98a4.384 4.384 0 0 0-4.38-4.38h-10.49a4.384 4.384 0 0 0-4.38 4.38v10.485a4.384 4.384 0 0 0 4.38 4.38h10.485a4.384 4.384 0 0 0 4.38-4.38V105.98zm-9.625 11.275a6.03 6.03 0 1 1 6.03-6.03 6.036 6.036 0 0 1-6.03 6.03zm7.36-11.219a1.53 1.53 0 1 1 .445-1.079 1.54 1.54 0 0 1-.445 1.079z" class="cls-1" data-name="Path 421" transform="translate(-95.225 -95.225)"/>
    <path id="Path_422" d="M195.953 192a3.953 3.953 0 1 0 3.953 3.953 3.961 3.961 0 0 0-3.953-3.953z" class="cls-1" data-name="Path 422" transform="translate(-179.953 -179.953)"/>
    <path id="Path_423" d="M28.8 0H3.2A3.213 3.213 0 0 0 0 3.2v25.6A3.213 3.213 0 0 0 3.2 32h25.6a3.213 3.213 0 0 0 3.2-3.2V3.2A3.213 3.213 0 0 0 28.8 0zm-1.1 21.245a6.463 6.463 0 0 1-6.455 6.455h-10.49A6.463 6.463 0 0 1 4.3 21.245v-10.49A6.463 6.463 0 0 1 10.755 4.3h10.484a6.463 6.463 0 0 1 6.461 6.455v10.49z" class="cls-1" data-name="Path 423"/>
</svg>
