<svg
  xmlns="http://www.w3.org/2000/svg"
  xmlns:xlink="http://www.w3.org/1999/xlink"
  width="15px" height="20px">
  <path fill-rule="evenodd"  fill="rgb(255, 255, 255)"
        d="M13.200,-0.000 L1.800,-0.000 C0.808,-0.000 0.000,0.814 0.000,1.814 L0.000,17.726 C0.000,18.637 0.528,19.460 1.343,19.818 C1.623,19.941 1.915,20.000 2.205,20.000 C2.924,20.000 3.621,19.636 4.040,18.986 L7.512,13.608 L10.961,18.960 C11.380,19.611 12.078,19.976 12.798,19.976 C13.087,19.976 13.380,19.917 13.660,19.794 C14.473,19.437 15.000,18.613 15.000,17.702 L15.000,1.814 C15.000,0.814 14.193,-0.000 13.200,-0.000 "/>
</svg>
