<svg xmlns="http://www.w3.org/2000/svg" viewBox="0 0 20 20">
    <defs>
        <style>
            .cls-1{fill:#ea0000}
        </style>
    </defs>
    <g id="phone-call">
        <path id="Path_412" d="M16.074 20a8.59 8.59 0 0 1-2.942-.626 22.075 22.075 0 0 1-7.423-5.083A22.091 22.091 0 0 1 .624 6.867c-.831-2.2-.833-4.011 0-4.839.119-.119.24-.247.365-.379C1.74.855 2.594-.039 3.725 0a3.28 3.28 0 0 1 2.309 1.481c2.286 2.842 1.255 3.856.066 5.03l-.211.209c-.2.2-.564 1.1 2.866 4.528a19.016 19.016 0 0 0 2.837 2.434c.48.312 1.339.784 1.692.432l.212-.214c1.173-1.19 2.186-2.217 5.027.067A3.277 3.277 0 0 1 20 16.276c.046 1.131-.854 1.986-1.649 2.741-.131.125-.259.246-.378.365a2.62 2.62 0 0 1-1.899.618zM3.645.673c-.8 0-1.53.764-2.172 1.44-.129.136-.254.268-.377.391-.618.616-.555 2.235.158 4.126a21.414 21.414 0 0 0 4.931 7.186 21.4 21.4 0 0 0 7.185 4.929c1.891.714 3.51.775 4.126.159.123-.123.255-.248.391-.377.691-.657 1.475-1.4 1.44-2.226a2.72 2.72 0 0 0-1.227-1.812c-2.367-1.9-3.029-1.232-4.127-.118l-.215.217c-.525.525-1.377.409-2.534-.343a19.643 19.643 0 0 1-2.946-2.523C5.431 8.876 4.52 7.135 5.411 6.242l.215-.212c1.116-1.1 1.789-1.76-.115-4.129A2.729 2.729 0 0 0 3.7.673z" class="cls-1" data-name="Path 412"/>
    </g>
</svg>
