<svg xmlns="http://www.w3.org/2000/svg" viewBox="0 0 24 24">
    <defs>
        <style>
            .cls-1{fill:#ff5d5d}
        </style>
    </defs>
    <g id="Group_571" data-name="Group 571" transform="translate(10211.912 4031.907)">
        <g id="Group_569" data-name="Group 569" transform="translate(-10211.912 -4031.907)">
            <path id="Path_413" d="M21.839 4.708H19.4A2.883 2.883 0 0 0 17.168 0a4.85 4.85 0 0 0-4.092 2.6 9.5 9.5 0 0 0-.611 1.138 9.5 9.5 0 0 0-.611-1.138A4.856 4.856 0 0 0 7.762 0a2.883 2.883 0 0 0-2.234 4.708H3.059a2.6 2.6 0 0 0-2.61 2.6v3.938a.522.522 0 0 0 .522.52h1.055V21.4A2.6 2.6 0 0 0 4.635 24h15.654a2.6 2.6 0 0 0 2.61-2.6v-9.642h1.028a.522.522 0 0 0 .522-.52V7.3a2.6 2.6 0 0 0-2.61-2.593zm-4.671-3.674a1.862 1.862 0 0 1 1.842 1.834A1.806 1.806 0 0 1 17.194 4.7h-4.009c.465-1.2 1.686-3.666 3.983-3.666zM5.914 2.868a1.862 1.862 0 0 1 1.843-1.834c2.292 0 3.513 2.463 3.977 3.674H7.726a1.81 1.81 0 0 1-1.812-1.84zM21.855 21.4a1.567 1.567 0 0 1-1.566 1.559H4.635A1.567 1.567 0 0 1 3.069 21.4v-9.642h18.786zm1.55-10.683H1.493V7.3a1.567 1.567 0 0 1 1.566-1.559h18.786A1.567 1.567 0 0 1 23.41 7.3v3.419zm0 0" class="cls-1" data-name="Path 413" transform="translate(-.449)"/>
            <g id="Group_469" data-name="Group 469" transform="translate(8.168 13.347)">
                <g id="Group_572" data-name="Group 572">
                    <path id="Path_414" d="M158.631 261.666a1.483 1.483 0 1 0-1.483-1.483 1.483 1.483 0 0 0 1.483 1.483zm0-2.106a.618.618 0 1 1-.618.618.618.618 0 0 1 .618-.618zm0 0" class="cls-1" data-name="Path 414" transform="translate(-157.148 -258.699)"/>
                    <path id="Path_415" d="M236.432 336.5a1.483 1.483 0 1 0 1.483 1.483 1.483 1.483 0 0 0-1.483-1.483zm0 2.106a.618.618 0 1 1 .618-.618.618.618 0 0 1-.618.618zm0 0" class="cls-1" data-name="Path 415" transform="translate(-230.252 -332.649)"/>
                    <path id="Path_416" d="M166.564 270.415a.424.424 0 0 0 .307.125.443.443 0 0 0 .307-.125l4.8-4.8a.431.431 0 0 0-.61-.61l-4.8 4.8a.427.427 0 0 0 0 .61zm0 0" class="cls-1" data-name="Path 416" transform="translate(-165.373 -264.475)"/>
                </g>
            </g>
        </g>
    </g>
</svg>
