<svg xmlns="http://www.w3.org/2000/svg" viewBox="0 0 24.068 17.751">
    <defs>
        <style>
            .cls-1{fill:#707070}
        </style>
    </defs>
    <g id="previous" transform="translate(0 -64.153)">
        <path id="Path_695" d="M23.624 64.172a.609.609 0 0 0-.679.286c-3.067 5.405-8.851 5.691-12.627 5.705V66.25a.6.6 0 0 0-.985-.468L.217 73.324a.6.6 0 0 0-.217.463.583.583 0 0 0 .222.463l9.107 7.517a.612.612 0 0 0 .384.138.574.574 0 0 0 .256-.059.6.6 0 0 0 .345-.546v-3.93c5.794-.217 9.073-2.742 10.815-4.864a12.844 12.844 0 0 0 2.939-7.758.589.589 0 0 0-.444-.576zM9.708 76.184a.6.6 0 0 0-.6.605v3.234l-7.557-6.236 7.561-6.257v3.234a.612.612 0 0 0 .177.428.6.6 0 0 0 .428.177c3.51 0 9.092 0 12.829-4.263-.94 3.712-4.174 8.994-12.838 9.078z" class="cls-1" data-name="Path 695"/>
    </g>
</svg>
