<svg xmlns="http://www.w3.org/2000/svg" id="icon_2_" data-name="icon (2)" viewBox="0 0 32 32">
    <defs>
        <style>
            .cls-1{fill:#c2c2c2}
        </style>
    </defs>
    <path id="Path_418" d="M29.961 0H2.044A2.043 2.043 0 0 0 0 2.041v27.918A2.043 2.043 0 0 0 2.044 32h27.915A2.042 2.042 0 0 0 32 29.959V2.041A2.037 2.037 0 0 0 29.961 0zm-3.417 19.5c.585.6 1.854 1.6 1.624 2.615-.212.935-1.608.594-2.963.648-1.547.065-2.464.1-3.394-.648A10.311 10.311 0 0 1 20.7 20.87c-.382-.425-.863-1.186-1.517-1.156-1.176.059-.808 1.7-1.226 2.816-6.54 1.03-9.166-3.01-11.483-6.93a59.4 59.4 0 0 1-2.748-5.978l4.625-.016S9.834 12.3 10.227 13a16.915 16.915 0 0 0 1.082 1.59c.318.438.822 1.3 1.373 1.226.9-.115 1.059-3.593.5-4.758-.221-.472-.752-.637-1.3-.8.185-1.17 5.187-1.414 6-.506 1.174 1.319-.813 4.99.795 6.061 2.258-1.183 4.187-6.138 4.187-6.138l5.415.034a17.352 17.352 0 0 1-1.734 3.866c-.517.7-2.233 2.245-2.166 3.394.052.913 1.447 1.798 2.165 2.531z" class="cls-1" data-name="Path 418"/>
</svg>
