<svg width="49.3px" height="49.3px" xmlns="http://www.w3.org/2000/svg" id="baby-stroller" viewBox="0 0 49.251 49.251">
    <g id="Group_190" data-name="Group 190">
        <g id="Group_189" data-name="Group 189">
            <path style="fill:#707070" id="Path_260" d="M31.455 0h-2.561a.721.721 0 0 0-.721.721v16.353H6.89l-1.711-5.085a2.439 2.439 0 0 0-2.33-1.744H.721a.721.721 0 0 0 0 1.443h2.127a.99.99 0 0 1 .952.712l.01.032 5.107 15.18a6.692 6.692 0 0 0 6.348 4.562h2.316l9.161 6.12-6.491 4.334a4.127 4.127 0 1 0 .657 1.3l7.133-4.762 7.138 4.769a4.143 4.143 0 1 0 .655-1.3L29.336 38.3l9.164-6.123h3.043a6.708 6.708 0 0 0 6.646-5.867l1.053-8.425v-.007-.045-.031-.007A17.816 17.816 0 0 0 31.455 0zM16.942 47.808a2.693 2.693 0 1 1 2.693-2.693 2.7 2.7 0 0 1-2.693 2.693zm22.2-5.387a2.693 2.693 0 1 1-2.693 2.693 2.7 2.7 0 0 1 2.69-2.692zm-11.1-4.992l-7.863-5.253h15.726zm19.429-16.94h-3.2a.721.721 0 1 0 0 1.443h3.024l-.525 4.2a5.263 5.263 0 0 1-5.214 4.6H15.261a5.25 5.25 0 0 1-4.98-3.579l-1.757-5.221h35.738a.721.721 0 1 0 0-1.443H8.038l-.663-1.972h40.338zm-13.42-3.415L38.8 12.33a.721.721 0 0 0-1.02-1.02l-4.744 4.744V4.136a.721.721 0 1 0-1.443 0v12.938h-1.977V1.443h1.84a16.373 16.373 0 0 1 16.337 15.631z" data-name="Path 260"/>
        </g>
    </g>
    <g id="Group_192" data-name="Group 192" transform="translate(16.225 44.394)">
        <g id="Group_191" data-name="Group 191">
            <path style="fill:#fb443f" id="Path_261" d="M169.395 461.5h-.009a.726.726 0 1 0 .009 0z"  data-name="Path 261" transform="translate(-168.669 -461.5)"/>
        </g>
    </g>
    <g id="Group_194" data-name="Group 194" transform="translate(38.422 44.394)">
        <g id="Group_193" data-name="Group 193">
            <path style="fill:#fb443f" id="Path_262" d="M400.145 461.5h-.009a.718.718 0 0 0-.717.721.724.724 0 1 0 .726-.721z"  data-name="Path 262" transform="translate(-399.419 -461.5)"/>
        </g>
    </g>
    <g id="Group_196" data-name="Group 196" transform="translate(40.125 7.684)">
        <g id="Group_195" data-name="Group 195">
            <path style="fill:#fb443f" id="Path_263" d="M419.211 80.087a.721.721 0 0 0-1.02 0l-.854.854a.721.721 0 1 0 1.02 1.02l.854-.854a.721.721 0 0 0 0-1.02z"  data-name="Path 263" transform="translate(-417.125 -79.875)"/>
        </g>
    </g>
</svg>
