<svg width="54px" height="52px" xmlns="http://www.w3.org/2000/svg" viewBox="0 0 54 52">
    <g id="desktop_2_" data-name="desktop (2)" transform="translate(0 -12.5)">
        <g id="Group_529" data-name="Group 529" transform="translate(0 12.5)">
            <g id="Group_528" data-name="Group 528">
                <path id="Path_611" d="M49.691 12.5H4.309A4.351 4.351 0 0 0 0 16.882v35.056a4.351 4.351 0 0 0 4.309 4.382h16.66v6.427h-6.033a.877.877 0 0 0 0 1.753h24.128a.877.877 0 0 0 0-1.753h-6.032V56.32h16.66A4.351 4.351 0 0 0 54 51.938V16.882a4.351 4.351 0 0 0-4.309-4.382zM31.309 62.747h-8.618V56.32h8.617zm20.968-10.809a2.61 2.61 0 0 1-2.585 2.629H4.309a2.61 2.61 0 0 1-2.585-2.629v-2.629h50.553zm0-4.382H1.723V16.882a2.61 2.61 0 0 1 2.585-2.629h45.383a2.61 2.61 0 0 1 2.585 2.629z" style="fill:#707070" data-name="Path 611" transform="translate(0 -12.5)"/>
                <path id="Path_612" d="M76.165 42.5H30.86a.866.866 0 0 0-.86.872v27.9a.866.866 0 0 0 .86.872h37.276a.872.872 0 0 0 0-1.744H31.72V44.244H75.3V70.4h-3.723a.872.872 0 0 0 0 1.744h4.588a.866.866 0 0 0 .86-.872v-27.9a.866.866 0 0 0-.86-.872z" style="fill:#fb443f" data-name="Path 612" transform="translate(-26.513 -39.013)"/>
            </g>
        </g>
    </g>
</svg>
