<svg xmlns="http://www.w3.org/2000/svg" viewBox="0 0 26.983 27.014">
    <g id="discount_2_" data-name="discount (2)" transform="translate(-.296)">
        <g id="Group_1104" data-name="Group 1104" transform="translate(.296 14.764)">
            <g id="Group_1103" data-name="Group 1103">
                <path id="Path_1069" d="M26.92 280.742a2.266 2.266 0 0 0-1.646-.927 1.633 1.633 0 0 0-1.325.495c-.073.078-.153.163-.237.255a2.256 2.256 0 0 0-1.346-.591 1.633 1.633 0 0 0-1.325.495c-.729.772-2.02 2.279-3.034 3.479a2.1 2.1 0 0 0-.423-.191c-.485-.209-7.164-3.061-10.125-3.061-4.783 0-6.98 2.571-7.071 2.68a.4.4 0 0 0 .608.509 6.183 6.183 0 0 1 1.567-1.2 9.88 9.88 0 0 1 4.9-1.2c2.845 0 9.76 2.974 9.829 3l.039.015a1.3 1.3 0 0 1 .851 1.622 1.305 1.305 0 0 1-.6.741 1.366 1.366 0 0 1-1.038.106l-4.326-1.192a.4.4 0 0 0-.211.765l4.32 1.19a2.09 2.09 0 0 0 2.7-1.9l1.16-.122a.4.4 0 0 0 .263-.141c.029-.034 2.874-3.45 4.074-4.72.5-.528 1.389-.154 1.75.349.554.774-.134 1.619-.359 1.859-1.1 1.182-3.121 3.617-3.484 4.055l-8.221 4.11-7.868-3.313a.4.4 0 0 0-.154-.031H.693a.4.4 0 0 0 0 .793h5.418l7.962 3.352a.4.4 0 0 0 .331-.011l8.459-4.229a.4.4 0 0 0 .128-.1c.023-.028 2.335-2.828 3.506-4.084a2.2 2.2 0 0 0 .423-2.857zm-6.975 4.2l-1.033.109a2.118 2.118 0 0 0-.312-.577c.864-1.022 2.267-2.667 3.018-3.462a.852.852 0 0 1 .7-.248 1.465 1.465 0 0 1 .869.39 197.479 197.479 0 0 0-3.241 3.789z" style="fill:#707070" data-name="Path 1069" transform="translate(-.296 -279.81)"/>
            </g>
        </g>
        <g id="Group_1106" data-name="Group 1106" transform="translate(4.529)">
            <g id="Group_1105" data-name="Group 1105">
                <path id="Path_1070" d="M98.68 8.036h-3.41V3.542a.4.4 0 1 0-.793 0v4.89a.4.4 0 0 0 .4.4h2.735L89.8 15.523l-7.81-6.694h2.735a.4.4 0 0 0 .4-.4V.793h9.357v.925a.4.4 0 1 0 .793 0V.4a.4.4 0 0 0-.4-.4H84.723a.4.4 0 0 0-.4.4v7.636h-3.41a.4.4 0 0 0-.258.7l8.882 7.613a.4.4 0 0 0 .516 0l8.882-7.613a.4.4 0 0 0-.255-.7z" style="fill:#fb443f" data-name="Path 1070" transform="translate(-80.524)"/>
            </g>
        </g>
        <g id="Group_1108" data-name="Group 1108" transform="translate(10.872 2.538)">
            <g id="Group_1107" data-name="Group 1107">
                <path id="Path_1071" d="M206.494 48.21a.4.4 0 0 0-.561 0l-5.075 5.075a.4.4 0 0 0 .28.677.4.4 0 0 0 .28-.116l5.075-5.075a.4.4 0 0 0 .001-.561z" style="fill:#fb443f" data-name="Path 1071" transform="translate(-200.745 -48.094)"/>
            </g>
        </g>
        <g id="Group_1110" data-name="Group 1110" transform="translate(14.676 5.921)">
            <g id="Group_1109" data-name="Group 1109">
                <path id="Path_1072" d="M274.071 112.219a1.242 1.242 0 1 0 1.242 1.242 1.244 1.244 0 0 0-1.242-1.242zm0 1.692a.449.449 0 1 1 .449-.449.45.45 0 0 1-.449.449z" style="fill:#fb443f" data-name="Path 1072" transform="translate(-272.829 -112.219)"/>
            </g>
        </g>
        <g id="Group_1112" data-name="Group 1112" transform="translate(10.446 2.538)">
            <g id="Group_1111" data-name="Group 1111">
                <path id="Path_1073" d="M193.914 48.094a1.242 1.242 0 1 0 1.242 1.242 1.244 1.244 0 0 0-1.242-1.242zm0 1.692a.449.449 0 1 1 .449-.449.45.45 0 0 1-.449.449z" style="fill:#fb443f" data-name="Path 1073" transform="translate(-192.672 -48.094)"/>
            </g>
        </g>
    </g>
</svg>
