<svg width="46.9px" height="49.3px" xmlns="http://www.w3.org/2000/svg" id="lotion" viewBox="0 0 46.932 49.251">
    <g id="Group_198" data-name="Group 198" transform="translate(7.899 20.658)">
        <g id="Group_197" data-name="Group 197">
            <path id="Path_264" d="M97.637 214.748c-1.978 0-3.469 2.729-3.469 6.348s1.491 6.348 3.469 6.348 3.469-2.729 3.469-6.348-1.491-6.348-3.469-6.348zm0 11.253c-.956 0-2.026-2.1-2.026-4.9s1.07-4.9 2.026-4.9 2.026 2.1 2.026 4.9S98.594 226 97.637 226z" style="fill:#fb443f" data-name="Path 264" transform="translate(-94.168 -214.748)"/>
        </g>
    </g>
    <g id="Group_206" data-name="Group 206">
        <g id="Group_205" data-name="Group 205">
            <path id="Path_268" d="M58.952 34.944a87.554 87.554 0 0 0-.99-14.275c-.709-3.841-1.879-6.435-3.682-8.164A8.854 8.854 0 0 0 50.9 10.5a4.006 4.006 0 0 0-3.238-3.391V5.556a9.95 9.95 0 0 0 1.361.1 6.232 6.232 0 0 0 3.6-1.054 2.2 2.2 0 0 0 .594-3.045 2.216 2.216 0 0 0-3.052-.592 1.965 1.965 0 0 1-1.16.3 13.534 13.534 0 0 1-2.887-.511A19.907 19.907 0 0 0 41.283 0a7.774 7.774 0 0 0-4.957 1.392 2.214 2.214 0 0 0-.334 3.084 2.216 2.216 0 0 0 3.084.334 3.745 3.745 0 0 1 2.207-.423 11.078 11.078 0 0 1 2.195.258v2.464a4.006 4.006 0 0 0-3.239 3.391 8.9 8.9 0 0 0-3.149 1.788 10.063 10.063 0 0 0-2.4 3.33l-.02-.284a41.506 41.506 0 0 0-.3-2.655 3.322 3.322 0 0 0-3.3-2.851H15.784a3.322 3.322 0 0 0-3.3 2.85 35.788 35.788 0 0 0-.3 2.655 49.048 49.048 0 0 0 1.676 16.288 47.539 47.539 0 0 0 2.363 6.827v6.617a4.992 4.992 0 0 0 .881 2.673 3.014 3.014 0 0 0 2.422 1.514h7.792a3.015 3.015 0 0 0 2.422-1.514 4.992 4.992 0 0 0 .881-2.673v-6.617a42.428 42.428 0 0 0 1.573-4.169c0 .219-.006.44-.009.666-.036 2.8-.036 5.894-.033 8.817a5.5 5.5 0 0 0 5.493 5.489h15.846a5.5 5.5 0 0 0 5.494-5.489c.003-2.924.003-6.014-.033-8.818zM27.318 47.809h-7.792c-.718 0-1.477-1.03-1.752-2.022h11.3c-.279.991-1.038 2.022-1.756 2.022zm1.86-3.465H17.666v-5.332h11.511zm.252-6.774H17.415a50.558 50.558 0 0 1-3.844-21.455H21.4a.721.721 0 0 0 .721-.721.734.734 0 0 0-.721-.721h-7.712c.06-.6.135-1.193.222-1.776a1.888 1.888 0 0 1 1.873-1.623H31.06a1.888 1.888 0 0 1 1.873 1.626c.088.583.162 1.177.222 1.776H20.5a.733.733 0 0 0-.721.721.721.721 0 0 0 .721.721h12.773a50.56 50.56 0 0 1-3.844 21.451zM41.283 2.944a4.923 4.923 0 0 0-3.112.742.751.751 0 0 1-.941-1.17 6.42 6.42 0 0 1 4.052-1.073 18.769 18.769 0 0 1 4.49.712 14.449 14.449 0 0 0 3.232.557 3.406 3.406 0 0 0 1.966-.55.746.746 0 0 1 .418-.128.756.756 0 0 1 .421 1.373 4.771 4.771 0 0 1-2.791.808c-2.633-.001-5.093-1.271-7.735-1.271zm4.932 2.344v1.755H44.92V4.977c.05.012.908.224 1.289.309zM44.2 8.486h2.738a2.559 2.559 0 0 1 2.371 1.6 15.99 15.99 0 0 0-2.4-.246q-1.333-.045-2.668 0a15.95 15.95 0 0 0-2.411.248 2.559 2.559 0 0 1 2.37-1.602zm-9.433 11.572c1.024-4.743 2.884-7.314 6.256-8.3a18.251 18.251 0 0 1 5.194-.482c2.521 0 5.18.467 7.064 2.273 1.444 1.385 2.435 3.474 3.092 6.533H34.766l.001-.024zm22.776 23.7a4.057 4.057 0 0 1-4.051 4.048H37.644a4.056 4.056 0 0 1-4.05-4.048c0-2.673 0-5.484.025-8.086h20.289a.736.736 0 0 0 .721-.721.721.721 0 0 0-.721-.721H33.637c.038-2.464.1-4.473.2-6.27a50.281 50.281 0 0 0 .855-6.44h21.954a88.205 88.205 0 0 1 .852 12.71h-3.59a.721.721 0 0 0-.721.721.737.737 0 0 0 .721.721h3.61c.027 2.604.027 5.416.024 8.089z" style="fill:#707070" data-name="Path 268" transform="translate(-12.054)"/>
        </g>
    </g>
</svg>
