<svg width="50px" height="50px" xmlns="http://www.w3.org/2000/svg" viewBox="0 0 50 50">
    <defs>
        <style>
            .cls-1{fill:#fb443f}.cls-2{fill:#707070}
        </style>
    </defs>
    <g id="open-book_1_" data-name="open-book (1)" transform="translate(-.002)">
        <g id="Group_619" data-name="Group 619" transform="translate(.002)">
            <g id="Group_618" data-name="Group 618">
                <path id="Path_788" d="M290.219 200.763a.826.826 0 0 0 1.11.36 70.665 70.665 0 0 1 7.294-3.246.825.825 0 0 0-.5-1.573 70.708 70.708 0 0 0-7.545 3.35.825.825 0 0 0-.359 1.109z" style="fill:#fb443f" data-name="Path 788" transform="translate(-261.729 -177.077)"/>
                <path id="Path_789" d="M290.956 98.814a.823.823 0 0 0 .374-.09 70.672 70.672 0 0 1 7.294-3.246.825.825 0 0 0-.5-1.573 70.714 70.714 0 0 0-7.545 3.35.824.824 0 0 0 .375 1.559z" style="fill:#fb443f" data-name="Path 789" transform="translate(-261.729 -84.69)"/>
                <path id="Path_790" d="M49.169 12.5a.833.833 0 0 0-.833.833v32.5a2.5 2.5 0 0 1-2.5 2.5h-20v-1.917A24.558 24.558 0 0 1 33.335 45a42.984 42.984 0 0 1 12.237 1.624.833.833 0 0 0 1.1-.791V9.167a.832.832 0 0 0-.653-.813s-.653-.146-1.77-.351a.833.833 0 0 0-.3 1.639c.426.078.783.147 1.058.2v34.884a47.063 47.063 0 0 0-11.667-1.392 26.18 26.18 0 0 0-8.3 1.6 19.522 19.522 0 0 0-7.533-1.6A56.157 56.157 0 0 0 5 44.761V9.812a54.853 54.853 0 0 1 12.5-1.478 18.068 18.068 0 0 1 6.667 1.373V42.5a.833.833 0 0 0 1.262.714A95.406 95.406 0 0 1 41.1 35.791a.833.833 0 0 0 .57-.791V.834a.835.835 0 0 0-1.128-.781A88.648 88.648 0 0 0 27.06 6.794a.833.833 0 1 0 .883 1.413A89.069 89.069 0 0 1 40 2.052V34.4a93.389 93.389 0 0 0-14.167 6.649V9.167a.834.834 0 0 0-.461-.746A19.3 19.3 0 0 0 17.5 6.667a54.086 54.086 0 0 0-13.562 1.7.833.833 0 0 0-.6.8v36.666a.833.833 0 0 0 .833.833.821.821 0 0 0 .228-.033A53.531 53.531 0 0 1 17.5 45a18.028 18.028 0 0 1 6.667 1.374v1.959h-20a2.5 2.5 0 0 1-2.5-2.5v-32.5a.833.833 0 0 0-1.667 0v32.5A4.171 4.171 0 0 0 4.169 50h41.666A4.171 4.171 0 0 0 50 45.833v-32.5a.833.833 0 0 0-.831-.833z" style="fill:#707070" data-name="Path 790" transform="translate(-.002)"/>
                <path id="Path_791" d="M290.219 149.563a.826.826 0 0 0 1.11.36 70.662 70.662 0 0 1 7.294-3.246.825.825 0 0 0-.5-1.573 70.712 70.712 0 0 0-7.545 3.35.825.825 0 0 0-.359 1.109z" style="fill:#fb443f" data-name="Path 791" transform="translate(-261.729 -130.883)"/>
                <path id="Path_792" d="M290.219 251.963a.826.826 0 0 0 1.11.36 70.666 70.666 0 0 1 7.294-3.246.825.825 0 0 0-.5-1.573 70.712 70.712 0 0 0-7.545 3.35.825.825 0 0 0-.359 1.109z" style="fill:#fb443f" data-name="Path 792" transform="translate(-261.729 -223.271)"/>
                <path id="Path_793" d="M97.063 154.1c-5.091-1.195-10.876.327-11.119.392a.824.824 0 0 0 .213 1.621.84.84 0 0 0 .214-.028c.055-.016 5.625-1.481 10.316-.38a.824.824 0 1 0 .376-1.605z" style="fill:#fb443f" data-name="Path 793" transform="translate(-76.97 -138.632)"/>
                <path id="Path_794" d="M97.063 205.3c-5.091-1.194-10.876.327-11.119.392a.824.824 0 0 0 .213 1.621.838.838 0 0 0 .214-.028c.055-.016 5.625-1.481 10.316-.38a.824.824 0 1 0 .376-1.605z" style="fill:#fb443f" data-name="Path 794" transform="translate(-76.97 -184.833)"/>
                <path id="Path_795" d="M290.219 303.163a.826.826 0 0 0 1.11.36 70.657 70.657 0 0 1 7.294-3.246.825.825 0 0 0-.5-1.573 70.717 70.717 0 0 0-7.545 3.35.825.825 0 0 0-.359 1.109z" style="fill:#fb443f" data-name="Path 795" transform="translate(-261.729 -269.465)"/>
                <path id="Path_796" d="M97.063 256.5c-5.091-1.194-10.876.326-11.119.392a.825.825 0 0 0 .213 1.622.836.836 0 0 0 .214-.029c.055-.016 5.625-1.481 10.316-.38a.824.824 0 1 0 .376-1.605z" style="fill:#fb443f" data-name="Path 796" transform="translate(-76.97 -231.028)"/>
                <path id="Path_797" d="M97.063 358.9c-5.091-1.195-10.876.327-11.119.392a.825.825 0 0 0 .213 1.622.835.835 0 0 0 .214-.029c.055-.016 5.625-1.481 10.316-.38a.824.824 0 1 0 .376-1.605z" style="fill:#fb443f" data-name="Path 797" transform="translate(-76.97 -323.421)"/>
                <path id="Path_798" d="M97.063 307.7c-5.091-1.195-10.876.326-11.119.392a.825.825 0 0 0 .213 1.622.836.836 0 0 0 .214-.029c.055-.016 5.625-1.481 10.316-.38a.824.824 0 1 0 .376-1.605z" style="fill:#fb443f" data-name="Path 798" transform="translate(-76.97 -277.222)"/>
            </g>
        </g>
    </g>
</svg>
