<svg width="49.3px" height="49.3px" xmlns="http://www.w3.org/2000/svg" id="oven" viewBox="0 0 49.251 49.251">
    <g id="Group_248" data-name="Group 248" transform="translate(6.567 18.059)">
        <g id="Group_247" data-name="Group 247">
            <path id="Path_311" d="M99.3 176H64.821a.821.821 0 0 0-.821.821v18.059a.821.821 0 0 0 .821.821H99.3a.821.821 0 0 0 .821-.821v-18.059A.821.821 0 0 0 99.3 176zm-.821 18.059H65.642v-16.417h32.834z" style="fill:#fb443f" data-name="Path 311" transform="translate(-64 -176)"/>
        </g>
    </g>
    <g id="Group_250" data-name="Group 250" transform="translate(9.283 3.283)">
        <g id="Group_249" data-name="Group 249">
            <path id="Path_312" d="M35.283 32a3.283 3.283 0 1 0 3.283 3.283A3.283 3.283 0 0 0 35.283 32zm0 4.925a1.642 1.642 0 1 1 1.642-1.642 1.642 1.642 0 0 1-1.642 1.642z" style="fill:#fb443f" data-name="Path 312" transform="translate(-32 -32)"/>
        </g>
    </g>
    <g id="Group_252" data-name="Group 252" transform="translate(17.492 3.283)">
        <g id="Group_251" data-name="Group 251">
            <path id="Path_313" d="M115.283 32a3.283 3.283 0 1 0 3.283 3.283A3.283 3.283 0 0 0 115.283 32zm0 4.925a1.642 1.642 0 1 1 1.642-1.642 1.642 1.642 0 0 1-1.642 1.642z" style="fill:#fb443f" data-name="Path 313" transform="translate(-112 -32)"/>
        </g>
    </g>
    <g id="Group_258" data-name="Group 258" transform="translate(25.267 3.283)">
        <g id="Group_257" data-name="Group 257">
            <path id="Path_314" d="M259.283 32a3.283 3.283 0 1 0 3.283 3.283A3.283 3.283 0 0 0 259.283 32zm0 4.925a1.642 1.642 0 1 1 1.642-1.642 1.642 1.642 0 0 1-1.642 1.642z" style="fill:#fb443f" data-name="Path 314" transform="translate(-256 -32)"/>
        </g>
    </g>
    <g id="Group_260" data-name="Group 260" transform="translate(33.476 3.283)">
        <g id="Group_259" data-name="Group 259">
            <path id="Path_315" d="M339.283 32a3.283 3.283 0 1 0 3.283 3.283A3.283 3.283 0 0 0 339.283 32zm0 4.925a1.642 1.642 0 1 1 1.642-1.642 1.642 1.642 0 0 1-1.642 1.642z" style="fill:#fb443f" data-name="Path 315" transform="translate(-336 -32)"/>
        </g>
    </g>
    <g id="Group_266" data-name="Group 266">
        <g id="Group_265" data-name="Group 265">
            <path id="Path_316" d="M46.789 0H2.463A2.463 2.463 0 0 0 0 2.463v44.326a2.463 2.463 0 0 0 2.463 2.463h44.326a2.463 2.463 0 0 0 2.463-2.463V2.463A2.463 2.463 0 0 0 46.789 0zm.821 46.789a.821.821 0 0 1-.821.821H2.463a.821.821 0 0 1-.821-.821v-2.463H47.61zm0-4.1H1.642V13.134H47.61zm0-31.193H1.642V2.463a.821.821 0 0 1 .821-.821h44.326a.821.821 0 0 1 .821.821z" style="fill:#707070" data-name="Path 316"/>
        </g>
    </g>
    <g id="Group_268" data-name="Group 268" transform="translate(13.134 45.147)">
        <g id="Group_267" data-name="Group 267">
            <path id="Path_317" d="M150.163 440h-21.342a.821.821 0 0 0 0 1.642h21.342a.821.821 0 0 0 0-1.642z" style="fill:#fb443f" data-name="Path 317" transform="translate(-128 -440)"/>
        </g>
    </g>
</svg>
