<svg width="48.8px" height="49.3px" xmlns="http://www.w3.org/2000/svg" viewBox="0 0 48.843 49.251">
    <defs>
        <style>
            .cls-1{fill:#fb443f}.cls-2{fill:#717171}
        </style>
    </defs>
    <g id="palette_1_" data-name="palette (1)" transform="translate(-2.125)">
        <g id="Group_224" data-name="Group 224" transform="translate(20.409 24.064)">
            <g id="Group_223" data-name="Group 223">
                <path id="Rectangle_183" d="M0 0h1.64v6.959H0z" style="fill:#fb443f" data-name="Rectangle 183" transform="rotate(-45 1.4 .58)"/>
            </g>
        </g>
        <g id="Group_226" data-name="Group 226" transform="translate(17.947 26.526)">
            <g id="Group_225" data-name="Group 225">
                <path id="Rectangle_184" d="M0 0h1.64v6.959H0z" style="fill:#fb443f" data-name="Rectangle 184" transform="rotate(-45 1.4 .58)"/>
            </g>
        </g>
        <g id="Group_220" data-name="Group 220" transform="translate(8.687 .726)">
            <g id="Group_219" data-name="Group 219">
                <path id="Path_299" d="M111.482 8.3a2.652 2.652 0 0 0-3.566-.126L87.789 25.4c-4.856 4.168-16.751 18.068-17.255 18.658a.82.82 0 0 0 .043 1.112l3.281 3.281a.82.82 0 0 0 1.083.067C75.6 48 91.182 35.863 97.041 29l14.51-17a2.651 2.651 0 0 0-.069-3.7zm-1.155 2.606L95.793 27.933c-5.13 6.011-18.38 16.552-21.289 18.843l-2.229-2.229c2.342-2.719 12.371-14.289 16.582-17.9l20.12-17.217a1.011 1.011 0 0 1 1.352.04 1.024 1.024 0 0 1-.002 1.437z" style="fill:#707070" data-name="Path 299" transform="translate(-70.337 -7.547)"/>
            </g>
        </g>
        <g id="Group_222" data-name="Group 222" transform="translate(2.125 36.948)">
            <g id="Group_221" data-name="Group 221">
                <path id="Path_300" d="M13.371 387.2l-2.813-2.846a.822.822 0 0 0-.893-.183L9 384.44a11 11 0 0 0-6.875 10.265v.886a.821.821 0 0 0 .82.82 10.983 10.983 0 0 0 10.555-8.15l.074-.271a.821.821 0 0 0-.203-.79zm-9.606 7.533v-.03a9.368 9.368 0 0 1 5.854-8.743l.157-.064 2.095 2.12a9.346 9.346 0 0 1-8.105 6.715z" style="fill:#707070" data-name="Path 300" transform="translate(-2.125 -384.109)"/>
            </g>
        </g>
        <g id="Group_228" data-name="Group 228" transform="translate(13.785 11.792)">
            <g id="Group_227" data-name="Group 227">
                <path id="Path_301" d="M160.444 137.909a33.364 33.364 0 0 0-7.888-15.32l-1.214 1.1a31.7 31.7 0 0 1 7.5 14.55 2.46 2.46 0 0 1-3.615 2.624l-1.687-.925a3.986 3.986 0 0 0-5.458 5.315l3.355 6.562a4 4 0 0 1 .221.518 4.1 4.1 0 0 1-2.5 5.219c-7.4 2.411-17.1-.388-24.724-7.142l-1.088 1.227c6.1 5.408 13.514 8.4 20.212 8.4a19.737 19.737 0 0 0 6.125-.932 5.75 5.75 0 0 0 3.526-7.314 5.813 5.813 0 0 0-.31-.723l-3.358-6.568a2.346 2.346 0 0 1 3.209-3.124l1.685.924a4.1 4.1 0 0 0 6.015-4.393z" style="fill:#707070" data-name="Path 301" transform="translate(-123.341 -122.589)"/>
            </g>
        </g>
        <g id="Group_230" data-name="Group 230" transform="translate(2.141)">
            <g id="Group_229" data-name="Group 229">
                <path id="Path_302" d="M7.1 4.867C-.239 12.216.941 25.88 9.847 36.651l1.264-1.051C2.747 25.49 1.522 12.774 8.261 6.026 15.178-.881 28.522.686 38.641 9.6l1.084-1.231C28.78-1.273 14.755-2.777 7.1 4.867z" style="fill:#707070" data-name="Path 302" transform="translate(-2.293)"/>
            </g>
        </g>
        <g id="Group_232" data-name="Group 232" transform="translate(24.269 4.963)">
            <g id="Group_231" data-name="Group 231">
                <path id="Path_303" d="M236.432 51.592a4.1 4.1 0 1 0 4.1 4.1 4.105 4.105 0 0 0-4.1-4.1zm0 6.561a2.46 2.46 0 1 1 2.46-2.46 2.463 2.463 0 0 1-2.46 2.46z" style="fill:#fb443f" data-name="Path 303" transform="translate(-232.331 -51.592)"/>
            </g>
        </g>
        <g id="Group_234" data-name="Group 234" transform="translate(13.607 3.322)">
            <g id="Group_233" data-name="Group 233">
                <path id="Path_304" d="M125.593 34.54a4.1 4.1 0 1 0 4.1 4.1 4.105 4.105 0 0 0-4.1-4.1zm0 6.561a2.46 2.46 0 1 1 2.46-2.46 2.463 2.463 0 0 1-2.46 2.459z" style="fill:#fb443f" data-name="Path 304" transform="translate(-121.492 -34.54)"/>
            </g>
        </g>
        <g id="Group_236" data-name="Group 236" transform="translate(6.226 10.704)">
            <g id="Group_235" data-name="Group 235">
                <path id="Path_305" d="M48.858 111.275a4.1 4.1 0 1 0 4.1 4.1 4.105 4.105 0 0 0-4.1-4.1zm0 6.561a2.46 2.46 0 1 1 2.46-2.46 2.463 2.463 0 0 1-2.46 2.46z" style="fill:#fb443f" data-name="Path 305" transform="translate(-44.757 -111.275)"/>
            </g>
        </g>
        <g id="Group_238" data-name="Group 238" transform="translate(7.866 20.545)">
            <g id="Group_237" data-name="Group 237">
                <path id="Path_306" d="M65.91 213.588a4.1 4.1 0 1 0 4.1 4.1 4.105 4.105 0 0 0-4.1-4.1zm0 6.561a2.46 2.46 0 1 1 2.46-2.46 2.463 2.463 0 0 1-2.46 2.46z" style="fill:#fb443f" data-name="Path 306" transform="translate(-61.809 -213.588)"/>
            </g>
        </g>
        <g id="Group_240" data-name="Group 240" transform="translate(21.809 35.308)">
            <g id="Group_239" data-name="Group 239">
                <path id="Path_307" d="M210.854 367.057a4.1 4.1 0 1 0 4.1 4.1 4.105 4.105 0 0 0-4.1-4.1zm0 6.561a2.46 2.46 0 1 1 2.46-2.46 2.463 2.463 0 0 1-2.46 2.46z" style="fill:#fb443f" data-name="Path 307" transform="translate(-206.753 -367.057)"/>
            </g>
        </g>
        <g id="Group_242" data-name="Group 242" transform="translate(37.392 19.725)">
            <g id="Group_241" data-name="Group 241">
                <path id="Path_308" d="M372.439 205.062a3.691 3.691 0 1 0 3.691 3.691 3.7 3.7 0 0 0-3.691-3.691zm0 5.741a2.05 2.05 0 1 1 2.05-2.05 2.053 2.053 0 0 1-2.05 2.047z" style="fill:#fb443f" data-name="Path 308" transform="translate(-368.748 -205.062)"/>
            </g>
        </g>
    </g>
</svg>
