<svg width="52.3px" height="52.3px" xmlns="http://www.w3.org/2000/svg" id="printer" viewBox="0 0 52.318 52.318">
    <g id="Group_174" data-name="Group 174">
        <g id="Group_173" data-name="Group 173">
            <path id="Path_208" d="M45.421 22.991h-2.3v-5.364a.766.766 0 0 0-.766-.766H39.29V6.9a.763.763 0 0 0 0-.077c0-.018-.005-.037-.008-.055s0-.013 0-.02c0-.022-.01-.043-.016-.064v-.008c-.007-.021-.014-.042-.023-.063v-.007a.734.734 0 0 0-.027-.057l-.016-.013a.79.79 0 0 0-.029-.049l-.01-.016-.032-.043-.013-.017a.7.7 0 0 0-.045-.05l-.005-.006L32.934.224a.277.277 0 0 0-.055-.05l-.015-.011a.78.78 0 0 0-.046-.034l-.013-.008c-.017-.01-.033-.021-.051-.03h-.01a.61.61 0 0 0-.058-.027h-.006l-.064-.023h-.008a.685.685 0 0 0-.065-.016h-.019L32.469 0a.737.737 0 0 0-.077 0h-18.6a.766.766 0 0 0-.766.766V16.86H9.963a.766.766 0 0 0-.766.766v5.365H6.9a6.905 6.905 0 0 0-6.9 6.9v18.6a.766.766 0 0 0 .766.766h12.262v2.3a.766.766 0 0 0 .766.766h24.729a.766.766 0 0 0 .766-.766v-2.3h12.263a.766.766 0 0 0 .766-.766v-18.6a6.905 6.905 0 0 0-6.897-6.9zM33.159 2.617l3.515 3.515h-3.515zm-22.43 15.776h2.3v2.3a.766.766 0 1 0 1.533 0V1.533h17.064V6.9a.766.766 0 0 0 .766.766h5.365v13.026a.766.766 0 1 0 1.533 0v-2.3h2.3v4.6H10.729zm27.028 32.393h-23.2v-9.708h23.2zm0-11.24h-23.2v-5.365a2.3 2.3 0 0 1 2.3-2.3h18.6a2.3 2.3 0 0 1 2.3 2.3zm13.028 8.174H39.29V34.181a3.836 3.836 0 0 0-3.832-3.832H16.86a3.836 3.836 0 0 0-3.832 3.832V47.72H1.533V29.889A5.371 5.371 0 0 1 6.9 24.524h38.521a5.371 5.371 0 0 1 5.365 5.365z" style="fill:#707070" data-name="Path 208"/>
        </g>
    </g>
    <g id="Group_176" data-name="Group 176" transform="translate(16.094 47.72)">
        <g id="Group_175" data-name="Group 175">
            <path id="Path_209" d="M176.864 467h-18.6a.766.766 0 1 0 0 1.533h18.6a.766.766 0 1 0 0-1.533z" style="fill:#fb443f" data-name="Path 209" transform="translate(-157.5 -467)"/>
        </g>
    </g>
    <g id="Group_178" data-name="Group 178" transform="translate(40.822 30.349)">
        <g id="Group_177" data-name="Group 177">
            <path id="Path_210" d="M401.8 297a2.3 2.3 0 1 0 2.3 2.3 2.3 2.3 0 0 0-2.3-2.3zm0 3.066a.766.766 0 1 1 .766-.766.767.767 0 0 1-.766.765z" style="fill:#fb443f" data-name="Path 210" transform="translate(-399.5 -297)"/>
        </g>
    </g>
    <g id="Group_180" data-name="Group 180" transform="translate(42.355 36.48)">
        <g id="Group_179" data-name="Group 179">
            <ellipse id="Ellipse_78" cx=".766" cy=".766" style="fill:#fb443f" data-name="Ellipse 78" rx=".766" ry=".766"/>
        </g>
    </g>
</svg>
