<svg width="68.6px" height="49.3px" xmlns="http://www.w3.org/2000/svg" viewBox="0 0 68.576 49.251">
    <g id="tent_2_" data-name="tent (2)" transform="translate(.001 -72.14)">
        <g id="Group_244" data-name="Group 244" transform="translate(-.001 72.14)">
            <g id="Group_243" data-name="Group 243">
                <path id="Path_309" d="M68.173 115.285a1.006 1.006 0 0 0-1.409.2l-2.244 2.992L44.1 77.64l3.781-3.781a1.007 1.007 0 1 0-1.423-1.423l-3.583 3.583-3.583-3.583a1.007 1.007 0 0 0-1.423 1.423l2.576 2.576H27.711l2.013-2.684a1.007 1.007 0 1 0-1.61-1.208l-2.525 3.366-3.474-3.474a1.006 1.006 0 0 0-1.423 1.423l3.781 3.781-20.418 40.839-2.244-2.992A1.007 1.007 0 1 0 .2 116.694l3.221 4.294a1.023 1.023 0 0 0 .807.4h51.486a1.007 1.007 0 1 0 0-2.013h-7.922l-13.6-27.2a1.007 1.007 0 0 0-1.8.9l13.148 26.3H26.7V81.7l4.043 8.086a1.007 1.007 0 1 0 1.8-.9l-5.216-10.439h14.927l20.465 40.931h-2.71a1.007 1.007 0 1 0 0 2.013h4.337a1.018 1.018 0 0 0 .807-.4l3.221-4.294a1.006 1.006 0 0 0-.201-1.412zm-43.481 4.093h-9.206l9.206-19.249zm-11.1-.711l-2.656-2.656L20.9 103.4zm11.1-23.325L8.8 115.467a1.007 1.007 0 0 0 .078 1.335l2.576 2.576h-5.6L24.692 81.7z" style="fill:#707070" data-name="Path 309" transform="translate(.001 -72.14)"/>
            </g>
        </g>
        <g id="Group_246" data-name="Group 246" transform="translate(37.577 89.318)">
            <g id="Group_245" data-name="Group 245">
                <path id="Path_310" d="M291.058 209.537l-4.294-8.589a1.006 1.006 0 0 0-.9-.556h-4.294a1.016 1.016 0 0 0-.9 1.457l4.294 8.589a1.006 1.006 0 0 0 .9.556h4.294a1.016 1.016 0 0 0 .9-1.457zm-4.572-.557l-3.286-6.58h2.044l3.288 6.576z" style="fill:#fb443f" data-name="Path 310" transform="translate(-280.565 -200.392)"/>
            </g>
        </g>
    </g>
</svg>
